<svg xmlns="http://www.w3.org/2000/svg" id="svg_view" viewBox="0 0 500 500" width="500" height="500" cursor="pointer"><rect width="500" height="500" fill="white" visibility="visible"/><g transform="translate(-38.78681617585734,-48.04219004070586) scale(1.1745999453070528)"><line class="edge&#10;           cluster0&#10;           clusterEdge0&#10;           internalEdge0" stroke="#566573" stroke-linecap="butt" opacity="0.5" visibility="visible" stroke-width="0.8513536919487847" x1="175.99157454071843" y1="242.559029317415" x2="154.13407535852957" y2="246.0988943316318" fill-opacity="0.5"/><line class="edge&#10;           cluster0&#10;           clusterEdge0&#10;           internalEdge0" stroke="#566573" stroke-linecap="butt" opacity="0.5" visibility="visible" stroke-width="0.8513536919487847" x1="234.83727861519043" y1="220.9539263391336" x2="214.83972196872327" y2="230.45480175198378" fill-opacity="0.5"/><line class="edge&#10;           cluster0&#10;           clusterEdge0&#10;           internalEdge0" stroke="#566573" stroke-linecap="butt" opacity="0.5" visibility="visible" stroke-width="0.8513536919487847" x1="99.56259444575196" y1="204.44161440808543" x2="86.74508934024102" y2="222.51178035367468" fill-opacity="0.5"/><line class="edge&#10;           cluster1&#10;           clusterEdge1&#10;           internalEdge1" stroke="#566573" stroke-linecap="butt" opacity="0.5" visibility="visible" stroke-width="0.8513536919487847" x1="404.05118739786946" y1="306.0125132278522" x2="382.1860122612262" y2="309.6075900095143" fill-opacity="0.5"/><line class="edge&#10;           cluster1&#10;           clusterEdge1&#10;           internalEdge1" stroke="#566573" stroke-linecap="butt" opacity="0.5" visibility="visible" stroke-width="0.8513536919487847" x1="363.9944126608084" y1="292.49749214832195" x2="366.2452017285941" y2="270.4442389494112" fill-opacity="0.5"/><line class="edge&#10;           cluster1&#10;           clusterEdge1&#10;           internalEdge1" stroke="#566573" stroke-linecap="butt" opacity="0.5" visibility="visible" stroke-width="0.8513536919487847" x1="330.0399751474172" y1="268.9317279418741" x2="349.90986829689496" y2="259.10791607783915" fill-opacity="0.5"/><line class="edge&#10;           cluster0&#10;           clusterEdge0&#10;           internalEdge0" stroke="#566573" stroke-linecap="butt" opacity="0.5" visibility="visible" stroke-width="0.8513536919487847" x1="85.76681779285803" y1="280.5603708350559" x2="80.10637132008245" y2="259.14196497169706" fill-opacity="0.5"/><circle r="20.55044240510112" cx="74.85558242790827" cy="239.27365102573782" name="HLA-DRA" entrez="3122" stroke-opacity="0.5" fill-opacity="1" stroke="black" fill="#717174" id="node_8" class="node cluster0 nCluster0 graph_0 anchor" stroke-width="0.8513536919487847" visibility="visible" opacity="1"/><circle r="16.779365960317218" cx="90.05406897049153" cy="296.7827812407303" name="GIMAP8" entrez="155038" stroke-opacity="0.5" fill-opacity="1" stroke="black" fill="#717174" id="node_1" class="node cluster0 nCluster0 graph_0" stroke-width="0.8513536919487847" visibility="visible" opacity="1"/><circle r="20.55044240510112" cx="196.27770212894865" cy="239.27365102573782" name="PLAUR" entrez="5329" stroke-opacity="0.5" fill-opacity="1" stroke="black" fill="#717174" id="node_9" class="node cluster0 nCluster0 graph_1 anchor" stroke-width="0.8513536919487847" visibility="visible" opacity="1"/><circle r="16.779365960317218" cx="249.993104349479" cy="213.75336605939648" name="COL1A1" entrez="1277" stroke-opacity="0.5" fill-opacity="1" stroke="black" fill="#717174" id="node_15" class="node cluster0 nCluster0 graph_1" stroke-width="0.8513536919487847" visibility="visible" opacity="1"/><circle r="16.779365960317218" cx="137.570521542476" cy="248.78139447384038" name="IER3" entrez="8870" stroke-opacity="0.5" fill-opacity="1" stroke="black" fill="#717174" id="node_16" class="node cluster0 nCluster0 graph_1" stroke-width="0.8513536919487847" visibility="visible" opacity="1"/><circle r="20.55044240510112" cx="361.90784207135874" cy="312.94173109773317" name="RACGAP1" entrez="29127" stroke-opacity="0.5" fill-opacity="1" stroke="black" fill="#689a84" id="node_18" class="node cluster1 nCluster1 graph_2" stroke-width="0.8513536919487847" opacity="1" visibility="visible"/><circle r="16.779365960317218" cx="314.99855349997046" cy="276.3683102788064" name="TRIM27" entrez="5987" stroke-opacity="0.5" fill-opacity="1" stroke="black" fill="#689a84" id="node_14" class="node cluster1 nCluster1 graph_2" stroke-width="0.8513536919487847" opacity="1" visibility="visible"/><circle r="16.779365960317218" cx="420.6082440253668" cy="303.29019842899083" name="ZNF146" entrez="7705" stroke-opacity="0.5" fill-opacity="1" stroke="black" fill="#689a84" id="node_2" class="node cluster1 nCluster1 graph_2" stroke-width="0.8513536919487847" opacity="1" visibility="visible"/><circle r="16.779365960317218" cx="109.27033618858822" cy="190.75560431439317" name="CD1D" entrez="912" stroke-opacity="0.5" fill-opacity="1" stroke="black" fill="#717174" id="node_0" class="node cluster0 nCluster0 graph_0" stroke-width="0.8513536919487847" visibility="visible" opacity="1"/><circle r="20.55044240510112" cx="368.33177231804376" cy="250" name="PFAS" entrez="5198" stroke-opacity="0.5" fill-opacity="1" stroke="black" fill="#689a84" id="node_3" class="node cluster1 nCluster1 graph_2 anchor" stroke-width="0.8513536919487847" opacity="1" visibility="visible"/></g><g><path class="polygons" fill="black" fill-opacity="0" cursor="pointer" d="M0,155.32249918055786L89.02203563496455,218.4674863206816L82.68353767824358,260.2774610642576L0,282.1290284588267L0,155.32249918055786Z"/><path class="polygons" fill="black" fill-opacity="0" cursor="pointer" d="M0,0L203.1820587211064,0L181.82217047841772,130.70065837043836L149.2645817099812,189.0861506175688L89.02203563496455,218.4674863206816L0,155.32249918055786L0,0Z"/><path class="polygons" fill="black" fill-opacity="0" cursor="pointer" d="M0,500L0,282.1290284588267L82.68353767824358,260.2774610642576L175.70734512674426,352.3614951393109L210.7668925736981,417.11908220043244L216.51886049422154,480.4992923134215L215.35974118500903,500L0,500Z"/><path class="polygons" fill="black" fill-opacity="0" cursor="pointer" d="M253.2706923117216,281.0863650112554L210.7668925736981,417.11908220043244L175.70734512674426,352.3614951393109L149.2645817099812,189.0861506175688L181.82217047841772,130.70065837043836L253.2706923117216,281.0863650112554Z"/><path class="polygons" fill="black" fill-opacity="0" cursor="pointer" d="M393.06368077174415,0L332.0047031543095,199.34645767687303L253.2706923117216,281.0863650112554L181.82217047841772,130.70065837043836L203.1820587211064,0L393.06368077174415,0Z"/><path class="polygons" fill="black" fill-opacity="0" cursor="pointer" d="M149.2645817099812,189.0861506175688L175.70734512674426,352.3614951393109L82.68353767824358,260.2774610642576L89.02203563496455,218.4674863206816L149.2645817099812,189.0861506175688Z"/><path class="polygons" fill="black" fill-opacity="0" cursor="pointer" d="M500,0L500,202.89788433343455L416.0751208825732,285.2262805124943L372.25301814804385,280.75372905386723L332.0047031543095,199.34645767687303L393.06368077174415,0L500,0Z"/><path class="polygons" fill="black" fill-opacity="0" cursor="pointer" d="M215.35974118500903,500L216.51886049422154,480.4992923134215L372.25301814804385,280.75372905386723L416.0751208825732,285.2262805124943L451.3882618666005,500L215.35974118500903,500Z"/><path class="polygons" fill="black" fill-opacity="0" cursor="pointer" d="M253.2706923117216,281.0863650112554L332.0047031543095,199.34645767687303L372.25301814804385,280.75372905386723L216.51886049422154,480.4992923134215L210.7668925736981,417.11908220043244L253.2706923117216,281.0863650112554Z"/><path class="polygons" fill="black" fill-opacity="0" cursor="pointer" d="M500,500L451.3882618666005,500L416.0751208825732,285.2262805124943L500,202.89788433343455L500,500Z"/></g><g><text class="clusterHeadingLabel" font-size="18px" font-weight="bold" padding="0" pointer-events="none" style="font-family: Nunito, sans-serif; text-anchor: middle; alignment-baseline: middle;" x="94.29175143306166" y="398.4248510643218">M1</text><text class="clusterHeadingLabel" font-size="18px" font-weight="bold" padding="0" pointer-events="none" style="font-family: Nunito, sans-serif; text-anchor: middle; alignment-baseline: middle;" x="424.8828426341072" y="138.35363807690914">M2</text></g><rect rx="1px" fill="white" opacity="0.5" pointer-events="none" x="396.03125" y="212.265625" width="45.484375" height="16.515625" style="display: none;"/><text font-size="18px" font-weight="bold" style="pointer-events: none; font-family: Nunito, sans-serif; display: none;" x="396.0443417630044" y="226.27716832445566">PFAS</text><svg id="svg_footer" viewBox="0 0 500 500" width="500" height="100" y="480" preserveAspectRatio="xMaxYMax meet"><a id="svg_footer_link" href="https://hb.flatironinstitute.org/" rel="noopener noreferrer" target="_blank"><svg xmlns="http://www.w3.org/2000/svg" xmlns:xlink="http://www.w3.org/1999/xlink" version="1.1" id="Layer_1" x="0px" y="0px" viewBox="0 0 264.8 27.4" style="enable-background:new 0 0 264.8 27.4;" xml:space="preserve" width="500" height="100"/><svg xmlns="http://www.w3.org/2000/svg" xmlns:xlink="http://www.w3.org/1999/xlink" version="1.1" id="Layer_1" x="0px" y="0px" viewBox="0 0 264.8 27.4" style="enable-background:new 0 0 264.8 27.4;" xml:space="preserve" width="500" height="100">
<style type="text/css">
	.st0{fill:#FFFFFF;}
	.st1{fill:#5E94C0;}
	.st2{fill:#AAAAAA;}
</style>
<rect y="0" class="st0" width="264.8" height="27.4"/>
<title>Asset 2</title>
<g>
	<g id="Layer_1-2">
		<g id="Layer_1-2-2">
			<path class="st1" d="M66.1,13.4c0-3.8-0.8-5.6-4.3-5.6c-3.9,0-6.4,2.4-6.4,6.1v12.7h-3.6V0h3.6v8.1c1.4-2.4,4-3.7,6.7-3.6     c3.2,0,5.5,1,6.7,2.9c0.9,1.4,0.9,3.1,0.9,5.2v13.9h-3.6V13.4z"/>
			<path class="st1" d="M78.7,18.3c0,3.9,0.9,5.6,4.4,5.6c4.1,0,6.3-2.5,6.3-7.2V5.1H93v21.5h-3.5v-3.2c-1.5,2.5-3.9,3.7-7.1,3.7     c-3,0-5.3-1.1-6.5-2.9C75,22.8,75,21.1,75,19V5.1h3.7V18.3z"/>
			<path class="st1" d="M124.7,13.4c0-3.8-0.7-5.6-3.9-5.6c-3.5,0-5.5,2.2-5.5,6.2v12.7h-3.7V13.5c0-3.8-0.7-5.6-3.9-5.6     c-3.4,0-5.5,2.3-5.5,6.2v12.7h-3.6V5.3h3.5v3c1.4-2.3,4-3.7,6.7-3.6c2.5-0.1,4.8,1.2,5.9,3.4c1.6-2.2,4.2-3.5,6.9-3.4     c2.8,0,4.9,1.1,6,2.9c0.8,1.5,0.9,3.3,0.9,5.6v13.5h-3.6V13.4H124.7z"/>
			<path class="st1" d="M170.4,13.4c0-3.8-0.9-5.6-4.3-5.6c-4,0-6.4,2.3-6.4,6.6v12.2h-3.6V5.1h3.5v3.1c1.5-2.4,4.1-3.8,6.9-3.7     c3.2,0,5.5,1,6.7,2.9c0.9,1.4,0.9,3.1,0.9,5.2v13.9h-3.7V13.4z"/>
			<path class="st2" d="M179.6,0h3.5v8.1c1.5-2.4,4.1-3.8,6.9-3.7c5.6,0,9.4,4.4,9.4,11.5s-3.8,11.3-9.4,11.3     c-2.8,0.2-5.4-1.1-7-3.4v2.7h-3.5V0H179.6z M189.3,24.1c3.9,0,6.4-3,6.4-7.9c0-5.5-2.4-8.5-6.4-8.5c-4.2,0-6.4,2.7-6.4,8.1     S185.3,24.1,189.3,24.1z"/>
			<path class="st2" d="M220.5,11.1c0-4.6-2.6-6.7-8.4-6.7c-4.5,0-7.5,1.9-8.3,5.1l3.3,1c0.4-1.9,2.1-2.9,4.9-2.9     c3.2,0,4.8,1.1,4.8,3.3c0,1.4,0,1.9-1,2.3s-2.9,0.5-5.9,0.8c-4.9,0.6-7.4,2.8-7.4,6.7s2.5,6.5,7,6.5c2.9,0,5.7-1.3,7.6-3.5v2.9     h3.4L220.5,11.1z M216.8,18.9c0,3-2.7,5.2-6.7,5.2c-2.5,0-3.9-1.2-3.9-3.3s1.1-3.2,3.7-3.6s4.9-0.5,6.8-1.5L216.8,18.9     L216.8,18.9z"/>
			<path class="st2" d="M235.8,14.1l-3.5-0.8c-2.3-0.5-3.4-1.1-3.4-2.7c0-1.9,1.5-3,4.4-3c2.4,0,4.1,0.9,4.7,2.6l3.6-0.2     c-0.6-3.3-3.7-5.4-8.3-5.4c-5.1,0-8.1,2.5-8.1,6.2s1.8,5,6.1,6l4,1c2.2,0.5,3.3,1.1,3.3,2.9c0,2.1-1.8,3.4-5,3.4     c-2.9,0-4.7-1.2-5.3-3.4l-3.6,0.2c0.6,4.1,3.5,6.4,8.5,6.4c5.8,0,9-2.7,9-7.1C242.3,16.5,240.2,15.1,235.8,14.1z"/>
			<path class="st2" d="M261,19.9c-0.5,2.6-2.9,4.4-5.5,4.2c-3.8,0-6.1-2.5-6.2-7.1h15.5v-1.6c0-7-3.6-10.9-9.7-10.9     c-5.9,0-9.7,4.2-9.7,11.7c0,7,3.7,11.2,9.7,11.2c4.7,0,8.1-2.5,9.2-6.6L261,19.9z M255.3,7.7c3.7,0,5.8,2.2,5.8,6.3h-11.8     C249.6,9.8,251.7,7.7,255.3,7.7z"/>
			<path class="st1" d="M150.5,11.1c0-4.6-2.6-6.7-8.4-6.7c-4.5,0-7.5,1.9-8.3,5.1l3.3,1c0.4-1.9,2.1-2.9,4.9-2.9     c3.2,0,4.8,1.1,4.8,3.3c0,1.4,0,1.9-1,2.3s-2.9,0.5-5.9,0.8c-4.9,0.6-7.4,2.8-7.4,6.7s2.5,6.5,7,6.5c2.9,0,5.7-1.3,7.6-3.5v2.9     h3.4V11.1z M146.8,18.9c0,3-2.7,5.2-6.7,5.2c-2.5,0-3.9-1.2-3.9-3.3s1.1-3.2,3.7-3.6c2.6-0.4,4.9-0.5,6.8-1.5L146.8,18.9     L146.8,18.9z"/>
		</g>
	</g>
</g>
<g id="g3394" transform="translate(-236,-131)">
	<g id="g3396">
		<polygon id="polygon3398" class="st1" points="257.5,140.1 257.5,136.7 239.5,136.7 239.5,131 236,131 236,158.4 239.5,158.4     239.5,152.7 257.4,152.7 257.4,149.2 239.5,149.2 239.5,140.1   "/>
		<polygon id="polygon3400" class="st2" points="260.6,143 242.6,143 242.6,146.3 260.6,146.3 260.6,158.4 264.1,158.4 264.1,131     260.6,131   "/>
	</g>
</g>
</svg></a></svg></svg>